<?xml version="1.0" encoding="utf-8"?>
<!-- Generator: Adobe Illustrator 16.0.4, SVG Export Plug-In . SVG Version: 6.00 Build 0)  -->
<!DOCTYPE svg PUBLIC "-//W3C//DTD SVG 1.1//EN" "http://www.w3.org/Graphics/SVG/1.1/DTD/svg11.dtd">
<svg version="1.1" id="Layer_1" xmlns="http://www.w3.org/2000/svg" xmlns:xlink="http://www.w3.org/1999/xlink" x="0px" y="0px"
	 width="2500px" height="2500px" viewBox="0 0 2500 2500" enable-background="new 0 0 2500 2500" xml:space="preserve">
<path fill="#FF533D" d="M0,1249.999C0,904.947,122.07,610.351,366.213,366.21C610.351,122.07,904.947,0,1250.001,0
	c345.05,0,639.646,122.07,883.788,366.21C2377.928,610.351,2500,904.947,2500,1249.999s-122.07,639.647-366.211,883.788
	C1889.649,2377.928,1595.053,2500,1250.001,2500c-345.054,0-639.649-122.07-883.788-366.213C122.07,1889.649,0,1595.048,0,1249.999z
	 M488.283,1518.553c-6.511-6.51-6.511-13.021,0-19.531c13.019-13.021,29.297-17.903,48.826-14.648
	c19.53,3.256,30.924,6.511,34.18,9.766c22.786,9.766,48.015,31.737,75.682,65.92c27.667,34.18,49.641,57.778,65.919,70.799
	c78.125,65.104,157.875,69.987,239.255,14.648c6.511-22.786,17.092-42.317,31.737-58.596c14.646-16.276,28.484-27.667,41.505-34.18
	c13.023-6.511,35.811-16.276,68.362-29.297c-107.425-9.766-194.5-28.484-261.231-56.154
	c-66.732-27.669-119.63-62.661-158.692-104.979c-52.083-58.594-83.823-135.091-95.216-229.492
	c-11.396-94.4-4.07-180.664,21.974-258.789c19.531-48.828,47.2-92.771,83.005-131.836c-26.041-81.38-21.158-174.153,14.648-278.319
	c104.167,6.511,198.567,42.317,283.203,107.422c162.76-42.318,332.031-43.945,507.81-4.883
	c22.786-16.276,57.781-36.62,104.979-61.036c47.2-24.414,106.608-38.25,178.223-41.506c13.021,35.808,21.975,78.125,26.857,126.953
	s2.442,94.401-7.323,136.719c74.867,78.125,113.93,182.291,117.185,312.5c0,104.166-17.9,190.43-53.708,258.789
	s-99.284,125.325-190.43,170.896c-61.849,29.299-143.229,47.2-244.141,53.711c45.576,22.786,78.94,46.388,100.099,70.802
	c21.162,24.414,34.995,62.661,41.508,114.745v153.812l4.881,148.925c9.766,16.278,21.161,30.111,34.182,41.507
	c13.021,11.394,24.414,19.531,34.18,24.414c9.764,4.883,13.021,12.209,9.764,21.975c-3.256,9.766-16.276,14.648-39.061,14.648
	c-55.34,0-99.283-19.531-131.835-58.597c-9.766-16.275-14.648-35.805-14.648-58.593v-234.375c0-26.042-6.511-44.761-19.531-56.154
	c-13.021-11.396-26.042-18.719-39.062-21.974v307.617c0,55.338,6.51,91.146,19.531,107.422
	c13.021,16.276,21.158,32.554,24.416,48.828c3.255,3.255,0.812,5.695-7.325,7.323c-8.136,1.625-21.972-0.812-41.505-7.323
	c-42.318-9.766-71.615-31.739-87.891-65.919c-16.276-34.18-24.414-70.803-24.414-109.865V1669.92h-63.477v302.734
	c0,39.062-8.141,76.5-24.417,112.305c-22.783,45.575-65.104,69.986-126.95,73.242c-9.766-3.256-14.648-6.511-14.648-9.764
	c3.255-3.258,13.021-19.531,29.297-48.828c3.255-6.51,7.325-19.531,12.208-39.062c4.886-19.531,7.325-42.317,7.325-68.359v-307.619
	c-13.021,3.256-25.229,10.578-36.622,21.975c-11.393,11.396-17.091,30.111-17.091,56.153v234.375
	c0,22.783-4.883,42.317-14.648,58.593c-29.297,39.062-73.242,58.597-131.833,58.597c-22.787,0-35.808-4.883-39.062-14.648
	c-3.258-6.511-2.443-12.208,2.442-17.091c4.885-4.883,12.208-10.581,21.974-17.092c9.766-6.51,16.276-11.396,19.531-14.648
	c13.021-9.766,22.784-22.786,29.297-39.062c9.766-13.021,12.206-47.2,7.323-102.538c-4.883-55.339-5.698-91.146-2.442-107.422
	c-84.639,29.297-170.898,14.646-258.792-43.945c-26.042-26.042-52.083-63.479-78.125-112.305
	C585.937,1609.699,546.874,1567.381,488.283,1518.553L488.283,1518.553z"/>
<path id="octocat" fill="#FFFFFF" d="M488.283,1518.553c-6.511-6.51-6.511-13.021,0-19.531
	c13.019-13.021,29.297-17.903,48.826-14.648c19.53,3.256,30.924,6.511,34.18,9.766c22.786,9.766,48.015,31.737,75.682,65.92
	c27.667,34.18,49.641,57.778,65.919,70.799c78.125,65.104,157.875,69.987,239.255,14.648c6.511-22.786,17.092-42.317,31.737-58.596
	c14.646-16.276,28.484-27.667,41.505-34.18c13.023-6.511,35.811-16.276,68.362-29.297c-107.425-9.766-194.5-28.484-261.231-56.154
	c-66.732-27.669-119.63-62.661-158.692-104.979c-52.083-58.594-83.823-135.091-95.216-229.492
	c-11.396-94.4-4.07-180.664,21.974-258.789c19.531-48.828,47.2-92.771,83.005-131.836c-26.041-81.38-21.158-174.153,14.648-278.319
	c104.167,6.511,198.567,42.317,283.203,107.422c162.76-42.318,332.031-43.945,507.81-4.883
	c22.786-16.276,57.781-36.62,104.979-61.036c47.2-24.414,106.608-38.25,178.223-41.506c13.021,35.808,21.975,78.125,26.857,126.953
	s2.442,94.401-7.323,136.719c74.867,78.125,113.93,182.291,117.185,312.5c0,104.166-17.9,190.43-53.708,258.789
	s-99.284,125.325-190.43,170.896c-61.849,29.299-143.229,47.2-244.141,53.711c45.576,22.786,78.94,46.388,100.099,70.802
	c21.162,24.414,34.995,62.661,41.508,114.745v153.812l4.881,148.925c9.766,16.278,21.161,30.111,34.182,41.507
	c13.021,11.394,24.414,19.531,34.18,24.414c9.764,4.883,13.021,12.209,9.764,21.975c-3.256,9.766-16.276,14.648-39.061,14.648
	c-55.34,0-99.283-19.531-131.835-58.597c-9.766-16.275-14.648-35.805-14.648-58.593v-234.375c0-26.042-6.511-44.761-19.531-56.154
	c-13.021-11.396-26.042-18.719-39.062-21.974v307.617c0,55.338,6.51,91.146,19.531,107.422
	c13.021,16.276,21.158,32.554,24.416,48.828c3.255,3.255,0.812,5.695-7.325,7.323c-8.136,1.625-21.972-0.812-41.505-7.323
	c-42.318-9.766-71.615-31.739-87.891-65.919c-16.276-34.18-24.414-70.803-24.414-109.865V1669.92h-63.477v302.734
	c0,39.062-8.141,76.5-24.417,112.305c-22.783,45.575-65.104,69.986-126.95,73.242c-9.766-3.256-14.648-6.511-14.648-9.764
	c3.255-3.258,13.021-19.531,29.297-48.828c3.255-6.51,7.325-19.531,12.208-39.062c4.886-19.531,7.325-42.317,7.325-68.359v-307.619
	c-13.021,3.256-25.229,10.578-36.622,21.975c-11.393,11.396-17.091,30.111-17.091,56.153v234.375
	c0,22.783-4.883,42.317-14.648,58.593c-29.297,39.062-73.242,58.597-131.833,58.597c-22.787,0-35.808-4.883-39.062-14.648
	c-3.258-6.511-2.443-12.208,2.442-17.091c4.885-4.883,12.208-10.581,21.974-17.092c9.766-6.51,16.276-11.396,19.531-14.648
	c13.021-9.766,22.784-22.786,29.297-39.062c9.766-13.021,12.206-47.2,7.323-102.538c-4.883-55.339-5.698-91.146-2.442-107.422
	c-84.639,29.297-170.898,14.646-258.792-43.945c-26.042-26.042-52.083-63.479-78.125-112.305
	C585.937,1609.699,546.874,1567.381,488.283,1518.553L488.283,1518.553z"/>
</svg>
